<mxfile host="app.diagrams.net" modified="2023-03-13T18:27:37.346Z" agent="5.0 (Windows NT 10.0; Win64; x64) AppleWebKit/537.36 (KHTML, like Gecko) Chrome/111.0.0.0 Safari/537.36" etag="YC7RdMF1Uiv3wdlCfkXV" version="21.0.6" type="github">
  <diagram name="Страница 1" id="6wkScdg2qlDHIKyMJZxI">
    <mxGraphModel dx="1434" dy="788" grid="1" gridSize="10" guides="1" tooltips="1" connect="1" arrows="1" fold="1" page="1" pageScale="1" pageWidth="827" pageHeight="1169" math="0" shadow="0">
      <root>
        <mxCell id="0" />
        <mxCell id="1" parent="0" />
        <mxCell id="HCndgcnCPgiQ7rmNv6WJ-1" value="" style="strokeWidth=2;html=1;shape=mxgraph.flowchart.terminator;whiteSpace=wrap;strokeColor=default;fillColor=default;" parent="1" vertex="1">
          <mxGeometry x="240" y="40" width="100" height="60" as="geometry" />
        </mxCell>
        <mxCell id="HCndgcnCPgiQ7rmNv6WJ-2" value="&lt;b&gt;START&lt;/b&gt;" style="text;html=1;strokeColor=none;fillColor=none;align=center;verticalAlign=middle;whiteSpace=wrap;rounded=0;" parent="1" vertex="1">
          <mxGeometry x="260" y="55" width="60" height="30" as="geometry" />
        </mxCell>
        <mxCell id="HCndgcnCPgiQ7rmNv6WJ-3" value="" style="shape=parallelogram;perimeter=parallelogramPerimeter;whiteSpace=wrap;html=1;fixedSize=1;" parent="1" vertex="1">
          <mxGeometry x="134" y="150" width="320" height="60" as="geometry" />
        </mxCell>
        <mxCell id="HCndgcnCPgiQ7rmNv6WJ-4" value="&lt;div style=&quot;font-family: Consolas, &amp;quot;Courier New&amp;quot;, monospace; font-size: 14px; line-height: 19px;&quot;&gt;&lt;b&gt;string[] &lt;span style=&quot;&quot;&gt;array,&amp;nbsp;&lt;/span&gt;string&lt;span style=&quot;&quot;&gt;[] &lt;/span&gt;&lt;span style=&quot;&quot;&gt;arrayNew&lt;/span&gt;&lt;/b&gt;&lt;/div&gt;" style="text;html=1;strokeColor=none;fillColor=none;align=center;verticalAlign=middle;whiteSpace=wrap;rounded=0;labelBackgroundColor=none;fontColor=default;" parent="1" vertex="1">
          <mxGeometry x="154" y="165" width="270" height="30" as="geometry" />
        </mxCell>
        <mxCell id="HCndgcnCPgiQ7rmNv6WJ-5" value="" style="rounded=0;whiteSpace=wrap;html=1;" parent="1" vertex="1">
          <mxGeometry x="199" y="260" width="180" height="60" as="geometry" />
        </mxCell>
        <mxCell id="HCndgcnCPgiQ7rmNv6WJ-6" value="&lt;div style=&quot;font-family: Consolas, &amp;quot;Courier New&amp;quot;, monospace; font-size: 14px; line-height: 19px;&quot;&gt;&lt;b&gt;int &lt;span style=&quot;&quot;&gt;count&lt;/span&gt; = &lt;span style=&quot;&quot;&gt;0&lt;/span&gt;&lt;/b&gt;&lt;/div&gt;" style="text;html=1;strokeColor=none;fillColor=none;align=center;verticalAlign=middle;whiteSpace=wrap;rounded=0;labelBackgroundColor=default;fontColor=default;" parent="1" vertex="1">
          <mxGeometry x="227" y="274" width="120" height="30" as="geometry" />
        </mxCell>
        <mxCell id="HCndgcnCPgiQ7rmNv6WJ-15" value="" style="strokeWidth=2;html=1;shape=mxgraph.flowchart.decision;whiteSpace=wrap;labelBackgroundColor=default;fontColor=default;" parent="1" vertex="1">
          <mxGeometry x="100" y="510" width="250" height="180" as="geometry" />
        </mxCell>
        <mxCell id="HCndgcnCPgiQ7rmNv6WJ-16" value="&lt;div style=&quot;font-family: Consolas, &amp;quot;Courier New&amp;quot;, monospace; font-size: 14px; line-height: 19px;&quot;&gt;&lt;b&gt;if (&lt;span style=&quot;&quot;&gt;array&lt;/span&gt;[&lt;span style=&quot;&quot;&gt;i&lt;/span&gt;].&lt;span style=&quot;&quot;&gt;Length&lt;/span&gt; &amp;lt;= &lt;span style=&quot;&quot;&gt;3&lt;/span&gt;)&lt;/b&gt;&lt;/div&gt;" style="text;html=1;strokeColor=none;fillColor=none;align=left;verticalAlign=middle;whiteSpace=wrap;rounded=0;fontColor=default;labelBackgroundColor=none;" parent="1" vertex="1">
          <mxGeometry x="134" y="572.5" width="196" height="55" as="geometry" />
        </mxCell>
        <mxCell id="HCndgcnCPgiQ7rmNv6WJ-17" value="" style="rounded=0;whiteSpace=wrap;html=1;labelBackgroundColor=none;fontColor=default;" parent="1" vertex="1">
          <mxGeometry x="75" y="824" width="300" height="75" as="geometry" />
        </mxCell>
        <mxCell id="HCndgcnCPgiQ7rmNv6WJ-18" value="&lt;div style=&quot;font-family: Consolas, &amp;quot;Courier New&amp;quot;, monospace; font-size: 14px; line-height: 19px;&quot;&gt;&lt;div&gt;&lt;b&gt;arrayNew[&lt;span style=&quot;&quot;&gt;count&lt;/span&gt;] = &lt;span style=&quot;&quot;&gt;array&lt;/span&gt;[&lt;span style=&quot;&quot;&gt;i&lt;/span&gt;];&lt;/b&gt;&lt;/div&gt;&lt;div&gt;&lt;b&gt;&lt;span style=&quot;&quot;&gt;count&lt;/span&gt;++;&lt;/b&gt;&lt;/div&gt;&lt;/div&gt;" style="text;html=1;strokeColor=none;fillColor=none;align=left;verticalAlign=middle;whiteSpace=wrap;rounded=0;fontColor=default;labelBackgroundColor=default;" parent="1" vertex="1">
          <mxGeometry x="115" y="842.5" width="230" height="30" as="geometry" />
        </mxCell>
        <mxCell id="HCndgcnCPgiQ7rmNv6WJ-20" value="" style="endArrow=classic;html=1;rounded=0;fontColor=default;exitX=0.5;exitY=1;exitDx=0;exitDy=0;" parent="1" source="HCndgcnCPgiQ7rmNv6WJ-3" edge="1">
          <mxGeometry width="50" height="50" relative="1" as="geometry">
            <mxPoint x="440" y="245" as="sourcePoint" />
            <mxPoint x="294" y="260" as="targetPoint" />
          </mxGeometry>
        </mxCell>
        <mxCell id="HCndgcnCPgiQ7rmNv6WJ-21" value="" style="endArrow=classic;html=1;rounded=0;fontColor=default;exitX=0.5;exitY=1;exitDx=0;exitDy=0;exitPerimeter=0;" parent="1" source="HCndgcnCPgiQ7rmNv6WJ-1" edge="1">
          <mxGeometry width="50" height="50" relative="1" as="geometry">
            <mxPoint x="374" y="100" as="sourcePoint" />
            <mxPoint x="291" y="150" as="targetPoint" />
          </mxGeometry>
        </mxCell>
        <mxCell id="HCndgcnCPgiQ7rmNv6WJ-25" value="" style="endArrow=classic;html=1;rounded=0;fontColor=default;exitX=0.552;exitY=0.992;exitDx=0;exitDy=0;exitPerimeter=0;" parent="1" source="HCndgcnCPgiQ7rmNv6WJ-5" edge="1">
          <mxGeometry width="50" height="50" relative="1" as="geometry">
            <mxPoint x="270" y="500" as="sourcePoint" />
            <mxPoint x="298" y="370" as="targetPoint" />
          </mxGeometry>
        </mxCell>
        <mxCell id="HCndgcnCPgiQ7rmNv6WJ-26" value="" style="endArrow=classic;html=1;rounded=0;fontColor=default;entryX=0.5;entryY=0;entryDx=0;entryDy=0;entryPerimeter=0;" parent="1" target="HCndgcnCPgiQ7rmNv6WJ-15" edge="1">
          <mxGeometry width="50" height="50" relative="1" as="geometry">
            <mxPoint x="225" y="460" as="sourcePoint" />
            <mxPoint x="320" y="450" as="targetPoint" />
          </mxGeometry>
        </mxCell>
        <mxCell id="HCndgcnCPgiQ7rmNv6WJ-27" value="" style="endArrow=classic;html=1;rounded=0;fontColor=default;exitX=0.5;exitY=1;exitDx=0;exitDy=0;exitPerimeter=0;entryX=0.5;entryY=0;entryDx=0;entryDy=0;" parent="1" source="HCndgcnCPgiQ7rmNv6WJ-15" target="HCndgcnCPgiQ7rmNv6WJ-17" edge="1">
          <mxGeometry width="50" height="50" relative="1" as="geometry">
            <mxPoint x="270" y="500" as="sourcePoint" />
            <mxPoint x="214" y="825" as="targetPoint" />
          </mxGeometry>
        </mxCell>
        <mxCell id="HCndgcnCPgiQ7rmNv6WJ-28" value="" style="edgeStyle=elbowEdgeStyle;elbow=vertical;endArrow=classic;html=1;curved=0;rounded=0;endSize=8;startSize=8;fontColor=default;exitX=0;exitY=0.5;exitDx=0;exitDy=0;entryX=0;entryY=0.5;entryDx=0;entryDy=0;" parent="1" source="HCndgcnCPgiQ7rmNv6WJ-17" target="HCndgcnCPgiQ7rmNv6WJ-33" edge="1">
          <mxGeometry width="50" height="50" relative="1" as="geometry">
            <mxPoint x="3.799999999999997" y="858" as="sourcePoint" />
            <mxPoint x="10" y="440" as="targetPoint" />
            <Array as="points">
              <mxPoint x="20" y="720" />
              <mxPoint x="50" y="862" />
              <mxPoint x="3.799999999999997" y="686" />
              <mxPoint x="-36.2" y="416" />
              <mxPoint x="-36.2" y="858" />
              <mxPoint x="33.80000000000001" y="646" />
            </Array>
          </mxGeometry>
        </mxCell>
        <mxCell id="HCndgcnCPgiQ7rmNv6WJ-29" value="" style="edgeStyle=elbowEdgeStyle;elbow=vertical;endArrow=classic;html=1;curved=0;rounded=0;endSize=8;startSize=8;fontColor=default;exitX=1;exitY=0.5;exitDx=0;exitDy=0;exitPerimeter=0;entryX=0.817;entryY=1.011;entryDx=0;entryDy=0;entryPerimeter=0;" parent="1" source="HCndgcnCPgiQ7rmNv6WJ-15" target="HCndgcnCPgiQ7rmNv6WJ-33" edge="1">
          <mxGeometry width="50" height="50" relative="1" as="geometry">
            <mxPoint x="338" y="645" as="sourcePoint" />
            <mxPoint x="410" y="473.7777777777778" as="targetPoint" />
            <Array as="points">
              <mxPoint x="390" y="600" />
              <mxPoint x="440" y="650" />
              <mxPoint x="410" y="650" />
            </Array>
          </mxGeometry>
        </mxCell>
        <mxCell id="HCndgcnCPgiQ7rmNv6WJ-30" value="&lt;b&gt;&lt;font face=&quot;Courier New&quot; style=&quot;font-size: 14px;&quot;&gt;Yes&lt;/font&gt;&lt;/b&gt;" style="text;html=1;strokeColor=none;fillColor=none;align=center;verticalAlign=middle;whiteSpace=wrap;rounded=0;fontColor=default;" parent="1" vertex="1">
          <mxGeometry x="167" y="740" width="60" height="30" as="geometry" />
        </mxCell>
        <mxCell id="HCndgcnCPgiQ7rmNv6WJ-31" value="&lt;b&gt;&lt;font style=&quot;font-size: 14px;&quot; face=&quot;Courier New&quot;&gt;No&lt;/font&gt;&lt;/b&gt;" style="text;html=1;strokeColor=none;fillColor=none;align=center;verticalAlign=middle;whiteSpace=wrap;rounded=0;fontColor=default;labelBorderColor=none;" parent="1" vertex="1">
          <mxGeometry x="350" y="597.5" width="60" height="30" as="geometry" />
        </mxCell>
        <mxCell id="HCndgcnCPgiQ7rmNv6WJ-33" value="" style="shape=hexagon;perimeter=hexagonPerimeter2;whiteSpace=wrap;html=1;fixedSize=1;labelBackgroundColor=default;fontColor=default;" parent="1" vertex="1">
          <mxGeometry x="140" y="370" width="330" height="90" as="geometry" />
        </mxCell>
        <mxCell id="HCndgcnCPgiQ7rmNv6WJ-14" value="&lt;div style=&quot;font-family: Consolas, &amp;quot;Courier New&amp;quot;, monospace; font-size: 14px; line-height: 19px;&quot;&gt;&lt;div&gt;&lt;b&gt;for (&lt;span style=&quot;&quot;&gt;int&lt;/span&gt; &lt;span style=&quot;&quot;&gt;i&lt;/span&gt; = &lt;span style=&quot;&quot;&gt;0&lt;/span&gt;; &lt;span style=&quot;&quot;&gt;i&lt;/span&gt; &amp;lt; &lt;span style=&quot;&quot;&gt;array&lt;/span&gt;.&lt;span style=&quot;&quot;&gt;Length&lt;/span&gt;; &lt;span style=&quot;&quot;&gt;i&lt;/span&gt;++)&lt;/b&gt;&lt;/div&gt;&lt;div&gt;&lt;br&gt;&lt;/div&gt;&lt;/div&gt;" style="text;html=1;strokeColor=none;fillColor=none;align=left;verticalAlign=middle;whiteSpace=wrap;rounded=0;fontColor=default;labelBackgroundColor=default;" parent="1" vertex="1">
          <mxGeometry x="160" y="410" width="310" height="30" as="geometry" />
        </mxCell>
      </root>
    </mxGraphModel>
  </diagram>
</mxfile>
